HIERARCHY
ROOT Hips
{
  OFFSET 90.7885 88.945 -76.2838
  CHANNELS 6 Xposition Yposition Zposition Zrotation Xrotation Yrotation
  JOINT LeftUpLeg
  {
    OFFSET 8.64259 1.95398 -2.38835
    CHANNELS 3 Zrotation Xrotation Yrotation
    JOINT LeftLeg
    {
      OFFSET 43.7702 0 0
      CHANNELS 3 Zrotation Xrotation Yrotation
      JOINT LeftFoot
      {
        OFFSET 40.6238 0 0
        CHANNELS 3 Zrotation Xrotation Yrotation
        JOINT LeftToeBase
        {
          OFFSET 12.7242 0 0
          CHANNELS 3 Zrotation Xrotation Yrotation
          End Site
          {
            OFFSET 0 0 0
          }
        }
      }
    }
  }
  JOINT RightUpLeg
  {
    OFFSET -8.2249 1.95398 -2.59336
    CHANNELS 3 Zrotation Xrotation Yrotation
    JOINT RightLeg
    {
      OFFSET 43.5653 0 0
      CHANNELS 3 Zrotation Xrotation Yrotation
      JOINT RightFoot
      {
        OFFSET 40.6238 0 0
        CHANNELS 3 Zrotation Xrotation Yrotation
        JOINT RightToeBase
        {
          OFFSET 12.7242 0 0
          CHANNELS 3 Zrotation Xrotation Yrotation
          End Site
          {
            OFFSET 0 0 0
          }
        }
      }
    }
  }
  JOINT Spine
  {
    OFFSET 0.165834 0.87714 6.61349
    CHANNELS 3 Zrotation Xrotation Yrotation
    JOINT Spine1
    {
      OFFSET 7.38963 1.71661e-005 0
      CHANNELS 3 Zrotation Xrotation Yrotation
      JOINT Spine2
      {
        OFFSET 11.9445 1.14441e-005 0
        CHANNELS 3 Zrotation Xrotation Yrotation
        JOINT Spine3
        {
          OFFSET 14.7254 4.19617e-005 0
          CHANNELS 3 Zrotation Xrotation Yrotation
          JOINT Spine4
          {
            OFFSET 10.9679 0 0
            CHANNELS 3 Zrotation Xrotation Yrotation
            JOINT RightShoulder
            {
              OFFSET 2.46616 -1.6653 3.69651
              CHANNELS 3 Zrotation Xrotation Yrotation
              JOINT RightArm
              {
                OFFSET 13.0012 0 0
                CHANNELS 3 Zrotation Xrotation Yrotation
                JOINT RightForeArm
                {
                  OFFSET 28.7848 1.52588e-005 0
                  CHANNELS 3 Zrotation Xrotation Yrotation
                  JOINT RightHand
                  {
                    OFFSET 26.5688 1.52588e-005 0
                    CHANNELS 3 Zrotation Xrotation Yrotation
                    End Site
                    {
                      OFFSET 0 0 0
                    }
                  }
                }
              }
            }
            JOINT LeftShoulder
            {
              OFFSET 2.38034 -1.29275 -3.7523
              CHANNELS 3 Zrotation Xrotation Yrotation
              JOINT LeftArm
              {
                OFFSET 16.3182 6.10352e-005 0
                CHANNELS 3 Zrotation Xrotation Yrotation
                JOINT LeftForeArm
                {
                  OFFSET 27.0901 0 0
                  CHANNELS 3 Zrotation Xrotation Yrotation
                  JOINT LeftHand
                  {
                    OFFSET 24.5451 1.52588e-005 0
                    CHANNELS 3 Zrotation Xrotation Yrotation
                    End Site
                    {
                      OFFSET 0 0 0
                    }
                  }
                }
              }
            }
            JOINT Neck
            {
              OFFSET 5.0226 -0.0266342 0
              CHANNELS 3 Zrotation Xrotation Yrotation
              JOINT Head
              {
                OFFSET 6.69363 2.86102e-005 0
                CHANNELS 3 Zrotation Xrotation Yrotation
                End Site
                {
                  OFFSET 0 0 0
                }
              }
            }
          }
        }
      }
    }
  }
}
MOTION
Frames:	7
Frame Time:	0.0416667
-157.238 98.034 107.131 103.824 -67.8497 100.907 -177.569 -5.09759 91.9964 -5.85524 -7.68275 1.37721 68.2418 3.96601 -4.4444 15.4875 -3.79716 6.47496 167.966 -1.48694 83.9393 -10.7001 -16.39 -0.702373 65.3685 -3.11851 -0.163686 25.3429 -0.766048 2.42983 0.254905 7.57203 -90.2026 11.7305 0.412018 -0.447137 0.0595644 0.391926 -0.464838 -22.4758 0.527336 -0.30264 -2.46314 0.527347 -0.302631 92.3404 -27.0292 -103.07 44.9556 -15.7472 -7.07107 5.08155 -21.5173 -14.5299 -25.7909 -0.62347 -7.11318 -86.0606 -54.1587 85.2334 -23.561 20.7651 -13.6553 2.22625 -1.47668 -9.11335 -0.268889 -0.0980664 -5.35528 2.94016 -6.80699 1.32636 -6.66134 -6.8007 -3.40129 
-157.254 98.0511 107.101 103.66 -67.7542 100.719 -177.62 -4.92271 91.9667 -6.16078 -8.76007 1.3847 67.802 3.6279 -6.25715 15.9677 -4.31387 7.0444 167.978 -1.4796 83.9222 -10.6293 -15.856 -0.72438 65.5877 -3.20849 0.542364 25.7254 -0.272308 1.28608 0.202141 7.55589 -90.1808 11.7625 0.31717 -0.393969 0.091525 0.299528 -0.407556 -22.4437 0.420907 -0.280438 -2.43101 0.420906 -0.280439 91.8174 -27.9678 -103.832 43.7934 -15.9787 -7.30812 5.14687 -20.4346 -14.2213 -25.3651 -0.458109 -7.70013 -86.9134 -54.2334 84.0187 -23.3162 20.816 -12.3603 1.97692 -3.2771 -10.1056 -1.01525 -0.0980487 -5.46453 2.72463 -6.58181 0.936558 -6.37366 -6.53482 -3.05763 
-157.262 98.0116 107.077 103.859 -67.7349 100.9 -177.669 -5.19789 91.9494 -5.75967 -8.45902 1.50345 68.7547 4.12386 -6.06098 14.6294 -4.77215 7.64003 167.959 -1.35679 83.8706 -10.9781 -15.7404 -0.708059 66.045 -3.35714 1.45374 24.2889 0.0582677 0.855025 0.210334 7.55688 -90.1838 11.7606 0.332043 -0.401437 0.0896272 0.314042 -0.415669 -22.4456 0.437326 -0.283088 -2.43295 0.437333 -0.283089 91.91 -27.9466 -103.648 43.8095 -16.0215 -7.36568 5.22799 -20.5634 -14.0847 -25.4189 -0.457388 -7.73711 -86.6888 -54.1275 84.326 -23.4309 21.4791 -12.4364 1.47573 -4.7553 -10.205 -2.08884 -0.0975768 -6.69802 2.93644 -6.4594 0.982299 -6.60192 -6.42104 -2.93951 
-157.332 98.0287 107.108 104.144 -67.5792 101.377 -177.653 -5.12719 92.2072 -6.08813 -8.47663 1.73792 68.7592 3.97955 -6.46046 14.949 -4.48045 7.29592 168.155 -1.71861 84.191 -10.7623 -15.6496 -0.768441 65.8375 -3.30863 1.13861 24.4407 0.0553178 0.831982 0.203808 7.56172 -90.1993 11.7509 0.311776 -0.43023 0.079918 0.292539 -0.443534 -22.4552 0.426651 -0.316639 -2.44254 0.42666 -0.316635 91.9673 -28.0075 -103.508 43.8096 -16.2014 -7.48088 5.32283 -20.7523 -13.9663 -25.4987 -0.52039 -7.45358 -86.4742 -54.2162 84.6468 -22.8837 21.9243 -12.5376 1.23824 -5.10964 -10.3717 -1.94459 -0.100933 -7.11963 2.76124 -6.46065 0.936428 -6.57422 -6.40936 -3.09102 
-157.409 98.0347 107.13 104.668 -67.5141 101.793 -177.544 -5.22235 92.2298 -6.27356 -8.16345 1.58444 68.574 3.95882 -6.0016 14.6446 -4.28384 7.082 168.19 -1.65122 84.1979 -11.3983 -15.7748 -0.813447 66.2299 -3.49269 0.765985 23.9504 0.070814 0.898388 0.208332 7.56934 -90.2085 11.7357 0.316548 -0.448886 0.0647007 0.296481 -0.46239 -22.4704 0.436808 -0.332997 -2.45773 0.43682 -0.333003 91.9267 -27.7474 -103.683 44.0403 -15.9168 -7.32279 5.15393 -20.9145 -13.747 -25.6051 -0.515585 -7.5229 -86.7076 -54.9291 84.4157 -22.3464 21.5789 -12.208 1.35506 -4.94797 -10.691 -1.37396 -0.113399 -6.99442 2.44607 -6.29289 1.51058 -6.54141 -6.32092 -3.47655 
-157.512 98.0496 107.19 104.797 -67.2739 101.691 -177.734 -5.44951 92.0215 -5.95992 -8.12472 1.81169 68.3058 3.92236 -6.17525 15.3657 -4.5156 7.31985 168.101 -1.63016 84.0496 -11.6773 -15.5563 -0.817992 66.4483 -3.57783 0.784009 23.7171 0.105268 0.872968 0.210326 7.55261 -90.1913 11.7691 0.328364 -0.416056 0.0981536 0.309732 -0.430114 -22.437 0.438232 -0.298136 -2.42438 0.438228 -0.298138 91.9744 -27.7893 -103.57 44.1538 -16.0549 -7.06602 5.06556 -20.7206 -14.1269 -25.1743 -0.530886 -7.4121 -86.2998 -54.2842 84.9069 -22.754 21.9002 -12.4038 1.16133 -5.18242 -10.3094 -1.11805 -0.121992 -7.09115 1.88484 -6.35027 1.5443 -6.39506 -6.39354 -3.22156 
-157.696 98.043 107.329 105.364 -67.0572 102.193 -177.646 -6.01128 92.1486 -5.37367 -7.80543 1.87984 68.1776 4.04595 -5.94298 15.2312 -4.40981 7.20582 168.165 -1.91261 84.1546 -11.8639 -15.3512 -0.862501 66.5899 -3.60245 0.74833 23.7672 0.0856766 0.903911 0.243139 7.58684 -90.2046 11.7008 0.387673 -0.448286 0.0297965 0.367572 -0.46492 -22.5055 0.504476 -0.311055 -2.49284 0.504479 -0.311047 92.0675 -27.3228 -103.539 44.8803 -15.9824 -7.07947 4.74909 -20.7969 -14.2595 -25.0184 -0.644237 -6.85244 -86.4702 -53.9135 84.6091 -23.347 21.0677 -12.3838 1.65822 -4.31638 -10.0037 -1.32074 -0.119129 -7.21508 1.58305 -6.2585 1.69437 -6.32553 -6.33186 -3.08493 
